<svg xmlns="http://www.w3.org/2000/svg" viewBox="0 0 70.06 28.14"><path d="M7.3,24.58,12.11,0,20,17.77,28.09,0l4.32,24.58H28.88l-2.21-13.8L19.9,24.64,13.33,10.77,10.87,24.58Z" fill="#fff"/><path d="M55.69,14.84l7.08,9.74H58.55L52,15.22h-.62v9.36H47.94V1.72h4q4.55,0,6.55,1.7a6.27,6.27,0,0,1,2.22,5,6.46,6.46,0,0,1-1.39,4.17A6.21,6.21,0,0,1,55.69,14.84Zm-4.3-2.62h1.1q4.9,0,4.9-3.75Q57.39,5,52.62,5H51.39Z" fill="#fff"/><path d="M47.38,10.88c0,.26,0,.54.06.83C47.43,11.42,47.41,11.14,47.38,10.88Z" fill="none"/><path d="M47.09,9.37h0a8.9,8.9,0,0,1,.29,1.51A8.9,8.9,0,0,0,47.09,9.37Z" fill="none"/><path d="M47.42,12.64a7.3,7.3,0,0,0,0-.93A7.3,7.3,0,0,1,47.42,12.64Z" fill="none"/><path d="M40.32,16.16h0v0Z" fill="none"/><path d="M40.32,16.09a3,3,0,0,0-.26-.75A3,3,0,0,1,40.32,16.09Z" fill="none"/><path d="M40.32,14.34A4.64,4.64,0,0,1,42,13l.39-.16L40.3,8l-2.16,4.77a5.54,5.54,0,0,1,.85.4A4.43,4.43,0,0,1,40.32,14.34Z" fill="none"/><path d="M43.93,19H45.1l-.37-.84A10.67,10.67,0,0,0,43.93,19Z" fill="none"/><path d="M35.72,18.11l-.41.92h1.25c-.08-.09-.14-.19-.23-.28S35.93,18.32,35.72,18.11Z" fill="none"/><path d="M45.37,11.44,40.36.28,35.19,11.37A3.15,3.15,0,0,0,36,12a3.73,3.73,0,0,0,1.15.45,6.48,6.48,0,0,1,1,.29L40.3,8l2.1,4.81a6.36,6.36,0,0,1,1.12-.34,3.41,3.41,0,0,0,1.42-.64A3.28,3.28,0,0,0,45.37,11.44Z" fill="#fff"/><path d="M33.75,16.19a5.22,5.22,0,0,1-.46-.73L29,24.58h3.72L35.31,19l.41-.92q-.47-.46-1-.9A5.6,5.6,0,0,1,33.75,16.19Z" fill="#fff"/><path d="M47.26,15.65a5.43,5.43,0,0,1-1.35,1.55c-.4.31-.77.62-1.1.92l-.08.07.37.84,2.4,5.55h3.77Z" fill="#fff"/><path d="M47.09,9.37a4.77,4.77,0,0,1-1.69,3.07,4.27,4.27,0,0,1-1.72.77,5.85,5.85,0,0,0-1.34.44,3.4,3.4,0,0,0-2,2.51,3.3,3.3,0,0,0-1.7-2.33A5.6,5.6,0,0,0,37,13.22a4.16,4.16,0,0,1-1.39-.54,4.62,4.62,0,0,1-2-3.28s-1.13,3.76.81,6.34a5,5,0,0,0,.85.89,12.68,12.68,0,0,1,1.7,1.63c1.45,1.67,2.24,3.4,3.51,5.15.78-.22,2.3,1.24,3.09,1.08a20.54,20.54,0,0,1-1.28-2.88c-.34-1.43.82-2.89,2.09-4.05.38-.35.78-.67,1.14-.95a4.64,4.64,0,0,0,1.31-1.55C48.08,12.57,47.09,9.37,47.09,9.37Z" fill="#fff"/><path d="M59.81,28.14a8.11,8.11,0,0,1-5.31-1.89,4.49,4.49,0,0,0-5.91,0,8.38,8.38,0,0,1-10.6,0,4.49,4.49,0,0,0-5.91,0,8.39,8.39,0,0,1-10.61,0,4.49,4.49,0,0,0-5.91,0,8.08,8.08,0,0,1-5.3,1.89A8.11,8.11,0,0,1,5,26.25,4.26,4.26,0,0,0,2,25.14a2,2,0,0,1,0-4A8.08,8.08,0,0,1,7.3,23a4.31,4.31,0,0,0,3,1.12,4.29,4.29,0,0,0,3-1.12,8.11,8.11,0,0,1,5.31-1.88A8.08,8.08,0,0,1,23.82,23a4.46,4.46,0,0,0,5.91,0,8.42,8.42,0,0,1,10.61,0,4.45,4.45,0,0,0,5.9,0,8.42,8.42,0,0,1,10.61,0,4.46,4.46,0,0,0,5.91,0,8.08,8.08,0,0,1,5.3-1.88,2,2,0,0,1,0,4,4.3,4.3,0,0,0-3,1.11A8.08,8.08,0,0,1,59.81,28.14Z" fill="#13b1e8"/></svg>