<svg xmlns="http://www.w3.org/2000/svg" viewBox="0 0 61.98 28.93"><path d="M.58,24.58,5.39,0l7.85,17.77L21.37,0l4.32,24.58-3.54.5L20,10.78,13.18,24.64,6.6,10.77,4.14,26.08Z" fill="#fff"/><path d="M51.82,24.58H52l-.19,0Z" fill="#fff"/><path d="M43.13,20.64c.49,0,1,.08,1.46.13h.08V15.22h.62L50,22l.58.2a6.13,6.13,0,0,1,.6.22l.58.22.56.24.56.23.53.25c.85.41,1.64.82,2.36,1.23H56L49,14.84a6.23,6.23,0,0,0,3.68-2.24A6.51,6.51,0,0,0,54,8.43a6.27,6.27,0,0,0-2.22-5q-2-1.69-6.55-1.7h-4V17.17l1.56,3.46ZM44.67,5H45.9q4.77,0,4.77,3.51,0,3.75-4.91,3.75H44.67Z" fill="#fff"/><path d="M42.78,20.63l-1.56-3.46V20.6Q42,20.6,42.78,20.63Z" fill="#fff"/><path d="M30.32,10.53a6.42,6.42,0,0,1,1.77.75L33.58,8,35,11.31h0a6.33,6.33,0,0,1,1.59-.44A3.24,3.24,0,0,0,38,10.36l.14-.12L33.64.28l-4.5,9.66a.69.69,0,0,0,.13.11A3.15,3.15,0,0,0,30.32,10.53Z" fill="#fff"/><path d="M27.44,15.54a7.45,7.45,0,0,1-.6-.65l-4.52,9.69h1.06l.51-.14.7-.21.7-.21,1.17-.36L28.59,19l.66-1.46-.32-.44A11.75,11.75,0,0,0,27.44,15.54Z" fill="#fff"/><path d="M38.92,16.17c-.36.25-.75.53-1.13.84l-.21.19L38.37,19l.73,1.67c.71-.06,1.42-.09,2.12-.1V17.17l-1-2.26A5.71,5.71,0,0,1,38.92,16.17Z" fill="#fff"/><path d="M40.39,8.22a4.69,4.69,0,0,1-1.86,3,4.13,4.13,0,0,1-1.76.68,5.81,5.81,0,0,0-1.36.37,3.38,3.38,0,0,0-2.15,2.38,3.33,3.33,0,0,0-1.58-2.42,5.37,5.37,0,0,0-1.61-.69,4.44,4.44,0,0,1-1.37-.62,4.64,4.64,0,0,1-1.84-3.4s-1.33,3.7.45,6.38a4.65,4.65,0,0,0,.8.93,13.39,13.39,0,0,1,1.61,1.73c1.36,1.75,2.05,3.52,3.22,5.34.79-.17,1.59-.33,2.4-.45a3.58,3.58,0,0,1-.49-1.24c-.26-1.45,1-2.85,2.31-3.93a14.8,14.8,0,0,1,1.2-.89,4.68,4.68,0,0,0,1.38-1.47C41.2,11.47,40.39,8.22,40.39,8.22Z" fill="#fff"/><path d="M61.41,28.46l-.68-.55c-.27-.21-.59-.46-.95-.72l-.57-.42-.63-.44c-.22-.16-.46-.31-.7-.47l-.38-.24-.19-.13-.2-.12c-.41-.26-.86-.52-1.33-.79-.72-.41-1.51-.82-2.36-1.23l-.53-.25-.56-.23-.56-.24-.58-.22a6.13,6.13,0,0,0-.6-.22L50,22h0l-.31-.11-.32-.09-.64-.19A26.71,26.71,0,0,0,46,21c-.44-.08-.89-.14-1.34-.2h-.08c-.48-.05-1-.1-1.46-.13h-.35q-.78,0-1.56,0c-.7,0-1.41,0-2.12.1s-1.35.13-2,.23h0c-.84.13-1.68.29-2.52.47-1.17.26-2.32.55-3.46.87-1.57.45-3.09.93-4.6,1.39L25.29,24l-.7.21-.7.21-.51.14-.19.06-.34.09-.35.1c-.92.25-1.83.48-2.72.67a39.27,39.27,0,0,1-5.22.81,34.45,34.45,0,0,1-4.74.06,36.68,36.68,0,0,1-4-.43l-.87-.15-.81-.15-.38-.08-.36-.08-.68-.15-.6-.14-.54-.13L1.31,25l-.22-.06-.38-.1L0,24.66.65,25c.21.11.47.25.79.39l1.08.49.65.27.36.14.37.14.79.29.86.28.22.07.23.07.47.13L7,27.4l.51.13.52.12.53.12.55.11.57.1.29.05.29,0,.59.08.31,0,.3,0,.62.06.32,0,.31,0c.22,0,.43,0,.65,0,.43,0,.87,0,1.32,0,.89,0,1.81,0,2.75-.11l.7-.06.71-.09c.24,0,.47-.06.71-.09l.36-.05.36-.06A56.11,56.11,0,0,0,26,26.63C28,26.1,29.89,25.51,31.8,25c1.54-.44,3.08-.81,4.6-1.12.37-.08.74-.17,1.1-.23.66-.12,1.33-.21,2-.28l.72-.07c.33,0,.67-.07,1-.09.61,0,1.22-.06,1.83-.05l.86,0,.48,0,.28,0,.38,0,.33,0,.32,0,.65.07.64.09.63.1.62.11c.82.16,1.62.34,2.38.55l.57.16.56.17h0l.19,0,.32.1.54.18.52.18.5.18c.34.13.67.24,1,.37l.92.37.87.37.21.09.2.09.4.18.38.18.37.16.69.33.62.31,1.06.53.78.4.65.33Z" fill="#fff"/></svg>